# xmcd
# 
# Track frame offsets:
#     150
#     21015
#     36426
#     56579
# 
# Disc length: 944
# 
# Revision: 0
# Processed by: cddbd v1.5.2PL0 Copyright (c) Steve Scherf et al.
# Submitted via: fre:ac v1.0.17
# 
DISCID=2d03ae04
DTITLE=TERRANOVA - Running Away
DYEAR=2002
DGENRE=
TTITLE0=Running Away
TTITLE1=Running Away (Naughty Remix)
TTITLE2=Running Away (Stereo MC's Remix)
TTITLE3=Bitcrush
EXTD=
EXTT0=
EXTT1=
EXTT2=
EXTT3=
PLAYORDER=
